<?xml version="1.0" encoding="UTF-8"?>
<svg xmlns="http://www.w3.org/2000/svg" version="1.1" viewBox="0 0 48 48">
  <defs>
    <style>
      .cls-1 {
        fill: #f90;
      }

      .cls-2 {
        fill: #fff;
      }
    </style>
  </defs>
  <!-- Generator: Adobe Illustrator 28.7.1, SVG Export Plug-In . SVG Version: 1.2.0 Build 142)  -->
  <g>
    <g id="Capa_1">
      <path class="cls-2" d="M13.5,21.5c0,.6,0,1.1.2,1.4.1.4.3.7.5,1.2,0,.1.1.3.1.4,0,.2,0,.3-.3.5l-1,.7c-.1,0-.3.1-.4.1s-.3,0-.5-.2c-.2-.2-.4-.5-.6-.8-.2-.3-.3-.6-.5-1-1.2,1.5-2.8,2.2-4.7,2.2s-2.4-.4-3.2-1.2-1.2-1.8-1.2-3.1.5-2.5,1.5-3.3,2.3-1.3,3.9-1.3,1.1,0,1.7.1,1.2.2,1.8.4v-1.2c0-1.2-.3-2.1-.8-2.6-.5-.5-1.4-.7-2.6-.7s-1.1,0-1.7.2c-.6.1-1.2.3-1.7.5-.3.1-.4.2-.6.2-.1,0-.2,0-.3,0-.2,0-.3-.2-.3-.5v-.8c0-.3,0-.5.1-.6s.2-.2.4-.3c.6-.3,1.2-.5,2-.7.8-.2,1.6-.3,2.5-.3,1.9,0,3.3.4,4.2,1.3.9.9,1.3,2.2,1.3,4v5.2h0ZM7,24c.5,0,1.1,0,1.6-.3.6-.2,1.1-.5,1.5-1,.3-.3.4-.6.5-1,0-.4.2-.9.2-1.4v-.7c-.5-.1-1-.2-1.5-.3-.5,0-1,0-1.5,0-1.1,0-1.9.2-2.4.6s-.8,1-.8,1.9.2,1.3.6,1.7c.4.4.9.6,1.7.6ZM19.9,25.7c-.3,0-.5,0-.6-.2-.1,0-.2-.3-.3-.6l-3.8-12.5c0-.3-.1-.5-.1-.6,0-.3.1-.4.4-.4h1.6c.3,0,.5,0,.6.2.1,0,.2.3.3.6l2.7,10.7,2.5-10.7c0-.3.2-.5.3-.6.1,0,.4-.2.6-.2h1.3c.3,0,.5,0,.6.2.1,0,.2.3.3.6l2.5,10.8,2.8-10.8c0-.3.2-.5.3-.6.1,0,.3-.2.6-.2h1.5c.3,0,.4.1.4.4s0,.2,0,.3,0,.2-.1.4l-3.8,12.5c0,.3-.2.5-.3.6s-.3.2-.6.2h-1.4c-.3,0-.5,0-.6-.2-.1-.1-.2-.3-.3-.6l-2.5-10.4-2.5,10.4c0,.3-.2.5-.3.6-.1.1-.4.2-.6.2h-1.4ZM40.4,26.2c-.8,0-1.7,0-2.5-.3s-1.4-.4-1.8-.6c-.3-.1-.4-.3-.5-.5s0-.3,0-.5v-.8c0-.3.1-.5.4-.5s.2,0,.3,0c0,0,.2,0,.4.2.5.2,1.1.4,1.8.6.6.1,1.3.2,1.9.2,1,0,1.8-.2,2.3-.5.5-.4.8-.9.8-1.5s-.1-.8-.4-1.1c-.3-.3-.8-.6-1.6-.8l-2.3-.7c-1.2-.4-2-.9-2.6-1.6-.5-.7-.8-1.5-.8-2.3s.1-1.3.4-1.8.7-1,1.1-1.3c.5-.4,1-.6,1.7-.8.6-.2,1.3-.3,2-.3s.7,0,1.1,0c.4,0,.7.1,1,.2.3,0,.6.2.9.3s.5.2.7.3c.2.1.4.3.5.4,0,.1.1.3.1.5v.8c0,.3-.1.5-.4.5s-.3,0-.6-.2c-.9-.4-1.9-.6-3.1-.6s-1.6.1-2.1.5c-.5.3-.8.8-.8,1.4s.2.8.5,1.1c.3.3.9.6,1.8.9l2.3.7c1.1.4,2,.9,2.5,1.5s.7,1.4.7,2.3-.1,1.3-.4,1.9c-.3.5-.7,1-1.2,1.4-.5.4-1.1.7-1.8.9-.7.2-1.5.3-2.3.3Z"/>
      <path class="cls-1" d="M43.4,34c-5.3,3.9-12.9,6-19.4,6S6.5,36.6.2,30.8c-.5-.5,0-1.1.5-.7,6.8,4,15.1,6.4,23.8,6.4s12.2-1.2,18.1-3.7c.9-.4,1.6.6.8,1.2ZM45.6,31.5c-.7-.9-4.4-.4-6.1-.2-.5,0-.6-.4-.1-.7,3-2.1,7.9-1.5,8.5-.8.6.7-.2,5.7-3,8.1-.4.4-.8.2-.7-.3.6-1.6,2.1-5.2,1.4-6Z"/>
    </g>
  </g>
</svg>