<?xml version="1.0" encoding="UTF-8"?>
<svg xmlns="http://www.w3.org/2000/svg" version="1.1" viewBox="0 0 48 48">
  <defs>
    <style>
      .cls-1 {
        fill: #ff3621;
      }
    </style>
  </defs>
  <!-- Generator: Adobe Illustrator 28.7.1, SVG Export Plug-In . SVG Version: 1.2.0 Build 142)  -->
  <g>
    <g id="Layer_1">
      <path class="cls-1" d="M41.9,33v-6.6l-.7-.4-17.1,9.4L7.8,26.4v-3.8l16.2,8.8,17.9-9.7v-6.5l-.7-.4-17.2,9.4-15.6-8.5,15.6-8.5,12.6,6.9,1-.5v-.7l-13.5-7.4L6.2,15v1l17.9,9.8,16.2-8.9v3.9l-16.2,8.9L6.9,20.3l-.7.4v6.6l17.9,9.7,16.2-8.8v3.8l-16.2,8.9L6.9,31.6l-.7.4v1l17.9,9.7,17.8-9.7Z"/>
    </g>
  </g>
</svg>